<svg xmlns="http://www.w3.org/2000/svg" viewBox="0 12.920000076293945 69.5999984741211 36.43000030517578" data-asc="0.987" width="69.5999984741211" height="36.43000030517578"><defs/><g><g fill="#ffffff"><g transform="translate(0, 0)"><path d="M8.45 27.68L9.80 27.68Q11.68 27.68 12.50 26.50L20.70 14.60Q21.38 13.63 22.24 13.27Q23.10 12.92 24.35 12.92L31.70 12.92L20.90 27.65Q20.33 28.45 19.70 28.98Q19.08 29.50 18.43 29.85Q19.38 30.20 20.16 30.81Q20.95 31.43 21.60 32.45L32.60 49.35L25.05 49.35Q24.33 49.35 23.81 49.25Q23.30 49.15 22.93 48.95Q22.55 48.75 22.28 48.46Q22 48.18 21.75 47.80L13.50 35.13Q13.05 34.42 12.36 34.14Q11.68 33.85 10.50 33.85L8.45 33.85L8.45 49.35L0 49.35L0 12.92L8.45 12.92L8.45 27.68ZM69.60 49.35L63.05 49.35Q61.95 49.35 61.24 48.84Q60.53 48.33 60.25 47.52L58.10 41.17L44.25 41.17L42.10 47.52Q41.85 48.23 41.13 48.79Q40.40 49.35 39.35 49.35L32.75 49.35L46.85 12.92L55.50 12.92L69.60 49.35M46.20 35.42L56.15 35.42L52.80 25.45Q52.48 24.50 52.04 23.21Q51.60 21.93 51.18 20.43Q50.78 21.95 50.35 23.25Q49.93 24.55 49.55 25.50L46.20 35.42Z"/></g></g></g></svg>